<?xml version="1.0" standalone="no"?><!DOCTYPE svg PUBLIC "-//W3C//DTD SVG 1.1//EN" "http://www.w3.org/Graphics/SVG/1.1/DTD/svg11.dtd"><svg t="1710492876342" class="icon" viewBox="0 0 1024 1024" version="1.1" xmlns="http://www.w3.org/2000/svg" p-id="10747" xmlns:xlink="http://www.w3.org/1999/xlink" width="200" height="200"><path d="M875.5 749.6H200.3c-8.3 0-15-6.7-15-15s6.7-15 15-15h675.2c8.3 0 15 6.7 15 15s-6.7 15-15 15zM156.7 749.6H127c-8.3 0-15-6.7-15-15s6.7-15 15-15h29.7c8.3 0 15 6.7 15 15s-6.7 15-15 15z" fill="#1A1A1A" p-id="10748"></path><path d="M375.2 321.8c-8.3 0-15-6.7-15-15v-64.6c0-8.3 6.7-15 15-15s15 6.7 15 15v64.6c0 8.2-6.7 15-15 15zM375.2 216.3c-8.3 0-15-6.7-15-15v-12.1c0-8.3 6.7-15 15-15s15 6.7 15 15v12.1c0 8.3-6.7 15-15 15zM492.4 331.7c-8.3 0-15-6.7-15-15v-90.8c0-8.3 6.7-15 15-15s15 6.7 15 15v90.8c0 8.3-6.7 15-15 15zM492.4 200.3c-8.3 0-15-6.7-15-15v-19c0-8.3 6.7-15 15-15s15 6.7 15 15v19c0 8.3-6.7 15-15 15zM609.7 321.8c-8.3 0-15-6.7-15-15v-65.9c0-8.3 6.7-15 15-15s15 6.7 15 15v65.9c0 8.2-6.7 15-15 15zM609.7 215.4c-8.3 0-15-6.7-15-15v-11.2c0-8.3 6.7-15 15-15s15 6.7 15 15v11.2c0 8.3-6.7 15-15 15z" fill="#F74E00" p-id="10749"></path><path d="M738.9 731.8H364.2c-43.8 0-79.7-35.9-79.7-79.7V348.7c0-43.8 35.9-79.7 79.7-79.7h374.7c43.8 0 79.7 35.9 79.7 79.7v303.4c0 43.9-35.9 79.7-79.7 79.7z" fill="#BC3506" p-id="10750"></path><path d="M635.3 731.8h-317c-43.8 0-79.7-35.9-79.7-79.7V348.7c0-43.8 35.9-79.7 79.7-79.7h317.1c43.8 0 79.7 35.9 79.7 79.7v303.4c-0.1 43.9-35.9 79.7-79.8 79.7z" fill="#F74E00" p-id="10751"></path><path d="M595.5 510.9c-8.3 0-15-6.7-15-15V255.3c0-8.3 6.7-15 15-15s15 6.7 15 15V496c0 8.2-6.7 14.9-15 14.9zM540.5 406.7c-8.3 0-15-6.7-15-15V253c0-8.3 6.7-15 15-15s15 6.7 15 15v138.6c0 8.4-6.7 15.1-15 15.1z" fill="#FFFFFF" p-id="10752"></path><path d="M511.8 415.5c-8.3 0-15-6.7-15-15V253c0-8.3 6.7-15 15-15s15 6.7 15 15v147.5c0 8.3-6.7 15-15 15zM707.1 485.4c-8.3 0-15-6.7-15-15v-204c0-8.3 6.7-15 15-15s15 6.7 15 15v204.1c0 8.2-6.7 14.9-15 14.9z" fill="#FFFFFF" p-id="10753"></path><path d="M679.8 451.7c-8.3 0-15-6.7-15-15V271.5c0-8.3 6.7-15 15-15s15 6.7 15 15v165.2c0 8.3-6.7 15-15 15zM640.7 448.8c-8.3 0-15-6.7-15-15V264.1c0-8.3 6.7-15 15-15s15 6.7 15 15v169.7c0 8.3-6.7 15-15 15z" fill="#FFFFFF" p-id="10754"></path><path d="M397.8 508.7c-8.3 0-15-6.7-15-15V258.6c0-8.3 6.7-15 15-15s15 6.7 15 15v235.1c0 8.3-6.7 15-15 15zM367.8 410c-8.3 0-15-6.7-15-15V256.4c0-8.3 6.7-15 15-15s15 6.7 15 15V395c0 8.3-6.7 15-15 15zM337.8 441.1c-8.3 0-15-6.7-15-15V256.4c0-8.3 6.7-15 15-15s15 6.7 15 15v169.7c0 8.2-6.7 15-15 15z" fill="#FFFFFF" p-id="10755"></path><path d="M308.8 477.7c-8.3 0-15-6.7-15-15V258.6c0-8.3 6.7-15 15-15s15 6.7 15 15v204.1c0 8.2-6.7 15-15 15z" fill="#FFFFFF" p-id="10756"></path><path d="M281.5 410c-8.3 0-15-6.7-15-15V256.4c0-8.3 6.7-15 15-15s15 6.7 15 15V395c0 8.3-6.7 15-15 15z" fill="#FFFFFF" p-id="10757"></path><path d="M252.8 441.1c-8.3 0-15-6.7-15-15V256.4c0-8.3 6.7-15 15-15s15 6.7 15 15v169.7c0 8.2-6.7 15-15 15z" fill="#FFFFFF" p-id="10758"></path><path d="M651.8 488.7c-8.3 0-15-6.7-15-15v-204c0-8.3 6.7-15 15-15s15 6.7 15 15v204.1c0 8.2-6.7 14.9-15 14.9z" fill="#FFFFFF" p-id="10759"></path><path d="M623.8 480.7c-8.3 0-15-6.7-15-15v-203c0-8.3 6.7-15 15-15s15 6.7 15 15v203c0 8.3-6.7 15-15 15zM568.5 392.3c-8.3 0-15-6.7-15-15V267.5c0-8.3 6.7-15 15-15s15 6.7 15 15v109.8c0 8.2-6.7 15-15 15z" fill="#FFFFFF" p-id="10760"></path><path d="M482.8 474.3c-8.3 0-15-6.7-15-15v-204c0-8.3 6.7-15 15-15s15 6.7 15 15v204.1c0 8.2-6.7 14.9-15 14.9z" fill="#FFFFFF" p-id="10761"></path><path d="M454.8 384.5c-8.3 0-15-6.7-15-15V253c0-8.3 6.7-15 15-15s15 6.7 15 15v116.4c0 8.4-6.7 15.1-15 15.1z" fill="#FFFFFF" p-id="10762"></path><path d="M426.8 437.7c-8.3 0-15-6.7-15-15V253c0-8.3 6.7-15 15-15s15 6.7 15 15v169.7c0 8.3-6.7 15-15 15z" fill="#FFFFFF" p-id="10763"></path><path d="M183.9 516c-8.3 0-15-6.7-15-15V368.1c0-62.9 44-114.1 98-114.1h415c54 0 98 51.2 98 114.1v98.1c0 8.3-6.7 15-15 15s-15-6.7-15-15v-98.1c0-46.4-30.5-84.1-68-84.1h-415c-37.5 0-68 37.7-68 84.1V501c0 8.3-6.7 15-15 15z" fill="#1A1A1A" p-id="10764"></path><path d="M681.9 746.8h-415c-54 0-98-51.2-98-114.1V573c0-8.3 6.7-15 15-15s15 6.7 15 15v59.7c0 46.4 30.5 84.1 68 84.1h415c37.5 0 68-37.7 68-84.1 0-8.3 6.7-15 15-15s15 6.7 15 15c0 63-43.9 114.1-98 114.1z" fill="#1A1A1A" p-id="10765"></path><path d="M764.9 598c-8.3 0-15-6.7-15-15v-65.9c0-8.3 6.7-15 15-15s15 6.7 15 15V583c0 8.3-6.7 15-15 15z" fill="#1A1A1A" p-id="10766"></path><path d="M987.5 872.7h-20.4c-8.3 0-15-6.7-15-15s6.7-15 15-15h20.4c8.3 0 15 6.7 15 15s-6.7 15-15 15zM917.5 872.7H484.3c-8.3 0-15-6.7-15-15s6.7-15 15-15h433.2c8.3 0 15 6.7 15 15s-6.7 15-15 15z" fill="#1A1A1A" p-id="10767"></path><path d="M515.9 872.7H253.5c-8.3 0-15-6.7-15-15s6.7-15 15-15h262.4c8.3 0 15 6.7 15 15s-6.7 15-15 15zM154.5 872.7H36.8c-8.3 0-15-6.7-15-15s6.7-15 15-15h117.7c8.3 0 15 6.7 15 15s-6.7 15-15 15z" fill="#1A1A1A" p-id="10768"></path><path d="M54.3 302.4c-0.8 0-1.5-0.7-1.5-1.5v-38.7c0-0.8 0.7-1.5 1.5-1.5s1.5 0.7 1.5 1.5v38.7c0 0.8-0.7 1.5-1.5 1.5z" fill="#F74E00" p-id="10769"></path><path d="M42.2 297c-0.4 0-0.7-0.1-1-0.4-0.6-0.6-0.7-1.5-0.1-2.1l25.1-27.4c0.6-0.6 1.5-0.7 2.1-0.1 0.6 0.6 0.7 1.5 0.1 2.1l-25.1 27.4c-0.3 0.4-0.7 0.5-1.1 0.5z" fill="#F74E00" p-id="10770"></path><path d="M67.4 296.7c-0.4 0-0.8-0.2-1.1-0.5l-25.1-27.4c-0.6-0.6-0.5-1.6 0.1-2.1 0.6-0.6 1.6-0.5 2.1 0.1l25.1 27.4c0.6 0.6 0.5 1.6-0.1 2.1-0.3 0.3-0.6 0.4-1 0.4z" fill="#F74E00" p-id="10771"></path><path d="M72 283H36.5c-0.8 0-1.5-0.7-1.5-1.5s0.7-1.5 1.5-1.5H72c0.8 0 1.5 0.7 1.5 1.5s-0.6 1.5-1.5 1.5z" fill="#F74E00" p-id="10772"></path><path d="M120.5 464.2h-7.4c-1.4 0-2.5-1.1-2.5-2.5s1.1-2.5 2.5-2.5h7.4c1.4 0 2.5 1.1 2.5 2.5s-1.1 2.5-2.5 2.5zM96.7 464.2h-7.4c-1.4 0-2.5-1.1-2.5-2.5s1.1-2.5 2.5-2.5h7.4c1.4 0 2.5 1.1 2.5 2.5s-1.1 2.5-2.5 2.5zM99 458.1c-0.7 0-1.3-0.3-1.8-0.8l-5.3-5.7c-0.9-1-0.9-2.6 0.2-3.5 1-0.9 2.6-0.9 3.5 0.2l5.3 5.7c0.9 1 0.9 2.6-0.2 3.5-0.5 0.4-1.1 0.6-1.7 0.6zM117.1 476.4c-0.7 0-1.3-0.3-1.8-0.8l-5.3-5.7c-0.9-1-0.9-2.6 0.2-3.5 1-0.9 2.6-0.9 3.5 0.2l5.3 5.7c0.9 1 0.9 2.6-0.2 3.5-0.5 0.4-1.1 0.6-1.7 0.6zM111.8 457.5c-0.6 0-1.2-0.2-1.7-0.7-1-0.9-1.1-2.5-0.2-3.5l5.3-5.7c0.9-1 2.5-1.1 3.5-0.2 1 0.9 1.1 2.5 0.2 3.5l-5.3 5.7c-0.4 0.7-1.1 0.9-1.8 0.9zM105.2 457.3c-1.4 0-2.5-1.1-2.5-2.5v-8.1c0-1.4 1.1-2.5 2.5-2.5s2.5 1.1 2.5 2.5v8.1c0 1.4-1.1 2.5-2.5 2.5zM105.2 480.4c-1.4 0-2.5-1.1-2.5-2.5v-8.1c0-1.4 1.1-2.5 2.5-2.5s2.5 1.1 2.5 2.5v8.1c0 1.4-1.1 2.5-2.5 2.5zM94 476.3c-0.6 0-1.2-0.2-1.7-0.7-1-0.9-1.1-2.5-0.2-3.5l5.3-5.7c0.9-1 2.5-1.1 3.5-0.2 1 0.9 1.1 2.5 0.2 3.5l-5.3 5.7c-0.5 0.6-1.2 0.9-1.8 0.9z" fill="#42DA56" p-id="10773"></path><path d="M132.1 262.7H128c-3.1 0-5.7-2.5-5.7-5.7v-1c0-3.1 2.5-5.7 5.7-5.7h4.2c3.1 0 5.7 2.5 5.7 5.7v1c-0.1 3.2-2.7 5.7-5.8 5.7z" fill="#3268CF" p-id="10774"></path><path d="M90.6 584.7c-2.5 0-4.5-2-4.5-4.5v-0.8c0-2.5 2-4.5 4.5-4.5s4.5 2 4.5 4.5v0.8c-0.1 2.5-2.1 4.5-4.5 4.5z" fill="#F74E00" p-id="10775"></path><path d="M57.1 392.7c-7.3 0-13.2-6-13.2-13.2v-2.4c0-7.3 6-13.2 13.2-13.2 7.3 0 13.2 6 13.2 13.2v2.4c0 7.2-5.9 13.2-13.2 13.2z" fill="#42DA56" p-id="10776"></path><path d="M965.2 438.5H959c-5.4 0-9.8-4.4-9.8-9.8v-1.3c0-5.4 4.4-9.8 9.8-9.8h6.2c5.4 0 9.8 4.4 9.8 9.8v1.3c0 5.4-4.4 9.8-9.8 9.8z m-6.2-15.9c-2.6 0-4.8 2.2-4.8 4.8v1.3c0 2.6 2.2 4.8 4.8 4.8h6.2c2.6 0 4.8-2.2 4.8-4.8v-1.3c0-2.6-2.2-4.8-4.8-4.8H959z" fill="#42DA56" p-id="10777"></path><path d="M915.6 368.6c-0.8 0-1.5-0.7-1.5-1.5v-23.4c0-0.8 0.7-1.5 1.5-1.5s1.5 0.7 1.5 1.5v23.4c0 0.9-0.7 1.5-1.5 1.5z" fill="#0000FF" p-id="10778"></path><path d="M908.3 365.4c-0.4 0-0.7-0.1-1-0.4-0.6-0.6-0.7-1.5-0.1-2.1l15.2-16.6c0.6-0.6 1.5-0.7 2.1-0.1 0.6 0.6 0.7 1.5 0.1 2.1l-15.2 16.6c-0.3 0.3-0.7 0.5-1.1 0.5z" fill="#0000FF" p-id="10779"></path><path d="M923.5 365.2c-0.4 0-0.8-0.2-1.1-0.5l-15.2-16.6c-0.6-0.6-0.5-1.6 0.1-2.1s1.6-0.5 2.1 0.1l15.2 16.6c0.6 0.6 0.5 1.6-0.1 2.1-0.3 0.3-0.6 0.4-1 0.4z" fill="#0000FF" p-id="10780"></path><path d="M926.3 356.9h-21.5c-0.8 0-1.5-0.7-1.5-1.5s0.7-1.5 1.5-1.5h21.5c0.8 0 1.5 0.7 1.5 1.5s-0.7 1.5-1.5 1.5z" fill="#0000FF" p-id="10781"></path><path d="M967.8 524.9h-7.4c-1.4 0-2.5-1.1-2.5-2.5s1.1-2.5 2.5-2.5h7.4c1.4 0 2.5 1.1 2.5 2.5s-1.2 2.5-2.5 2.5zM944 524.9h-7.4c-1.4 0-2.5-1.1-2.5-2.5s1.1-2.5 2.5-2.5h7.4c1.4 0 2.5 1.1 2.5 2.5s-1.2 2.5-2.5 2.5zM946.2 518.7c-0.7 0-1.3-0.3-1.8-0.8l-5.3-5.7c-0.9-1-0.9-2.6 0.2-3.5 1-0.9 2.6-0.9 3.5 0.2l5.3 5.7c0.9 1 0.9 2.6-0.2 3.5-0.4 0.4-1.1 0.6-1.7 0.6zM964.3 537.1c-0.7 0-1.3-0.3-1.8-0.8l-5.3-5.7c-0.9-1-0.9-2.6 0.2-3.5s2.6-0.9 3.5 0.2l5.3 5.7c0.9 1 0.9 2.6-0.2 3.5-0.5 0.4-1.1 0.6-1.7 0.6zM959 518.2c-0.6 0-1.2-0.2-1.7-0.7-1-0.9-1.1-2.5-0.2-3.5l5.3-5.7c0.9-1 2.5-1.1 3.5-0.2 1 0.9 1.1 2.5 0.2 3.5l-5.3 5.7c-0.4 0.6-1.1 0.9-1.8 0.9zM952.4 518c-1.4 0-2.5-1.1-2.5-2.5v-8.1c0-1.4 1.1-2.5 2.5-2.5s2.5 1.1 2.5 2.5v8.1c0 1.3-1.1 2.5-2.5 2.5zM952.4 541.1c-1.4 0-2.5-1.1-2.5-2.5v-8.1c0-1.4 1.1-2.5 2.5-2.5s2.5 1.1 2.5 2.5v8.1c0 1.4-1.1 2.5-2.5 2.5zM941.2 537c-0.6 0-1.2-0.2-1.7-0.7-1-0.9-1.1-2.5-0.2-3.5l5.3-5.7c0.9-1 2.5-1.1 3.5-0.2 1 0.9 1.1 2.5 0.2 3.5l-5.3 5.7c-0.5 0.6-1.1 0.9-1.8 0.9z" fill="#F74E00" p-id="10782"></path><path d="M904.2 606.7h-4.3c-1.2 0-2.1-1-2.1-2.1v-0.4c0-1.2 1-2.1 2.1-2.1h4.3c1.2 0 2.1 1 2.1 2.1v0.4c0 1.2-0.9 2.1-2.1 2.1z" fill="#3268CF" p-id="10783"></path><path d="M905.4 491.4h-9.3c-4 0-7.2-3.2-7.2-7.2v-0.8c0-4 3.2-7.2 7.2-7.2h9.3c4 0 7.2 3.2 7.2 7.2v0.8c0 4-3.2 7.2-7.2 7.2z m-9.3-10.2c-1.2 0-2.2 1-2.2 2.2v0.8c0 1.2 1 2.2 2.2 2.2h9.3c1.2 0 2.2-1 2.2-2.2v-0.8c0-1.2-1-2.2-2.2-2.2h-9.3z" fill="#F74E00" p-id="10784"></path><path d="M893.9 279a5.7 6.3 0 1 0 11.4 0 5.7 6.3 0 1 0-11.4 0Z" fill="#3268CF" p-id="10785"></path></svg>