<?xml version="1.0" standalone="no"?><!DOCTYPE svg PUBLIC "-//W3C//DTD SVG 1.1//EN" "http://www.w3.org/Graphics/SVG/1.1/DTD/svg11.dtd"><svg t="1710492908166" class="icon" viewBox="0 0 1024 1024" version="1.1" xmlns="http://www.w3.org/2000/svg" p-id="12823" xmlns:xlink="http://www.w3.org/1999/xlink" width="200" height="200"><path d="M415.9 587.9h190.9c163.4 0 295.9 129.6 295.9 289.4V896c0 63-132.5 65.4-295.9 65.4H415.9c-163.4 0-295.9-0.1-295.9-65.4v-18.6c0-159.9 132.5-289.5 295.9-289.5zM501.8 65c126.5 0 229.1 100.3 229.1 224.1S628.4 513.2 501.8 513.2 272.7 412.9 272.7 289.1 375.3 65 501.8 65z m0 0c126.5 0 229.1 100.3 229.1 224.1S628.4 513.2 501.8 513.2 272.7 412.9 272.7 289.1 375.3 65 501.8 65z" fill="#66a3ff" p-id="12824"></path></svg>