<?xml version="1.0" standalone="no"?><!DOCTYPE svg PUBLIC "-//W3C//DTD SVG 1.1//EN" "http://www.w3.org/Graphics/SVG/1.1/DTD/svg11.dtd"><svg t="1710492837188" class="icon" viewBox="0 0 1024 1024" version="1.1" xmlns="http://www.w3.org/2000/svg" p-id="7218" xmlns:xlink="http://www.w3.org/1999/xlink" width="200" height="200"><path d="M102.4 409.6h819.2v409.6a102.4 102.4 0 0 1-102.4 102.4H204.8a102.4 102.4 0 0 1-102.4-102.4V409.6zM102.4 409.6h819.2L579.4816 110.1824a102.4 102.4 0 0 0-134.9632 0z" fill="#36C196" p-id="7219"></path><path d="M204.8 204.8h614.4a51.2 51.2 0 0 1 51.2 51.2v563.2H153.6V256a51.2 51.2 0 0 1 51.2-51.2z" fill="#FFBA40" p-id="7220"></path><path d="M327.68 447.5904a20.48 20.48 0 0 0-4.7104-14.0288A43.3152 43.3152 0 0 0 307.2 423.936a173.056 173.056 0 0 1-19.5584-8.8064 60.6208 60.6208 0 0 1-14.0288-10.24 39.0144 39.0144 0 0 1-9.1136-13.312 44.4416 44.4416 0 0 1-3.2768-18.1248 40.96 40.96 0 0 1 11.1616-29.7984 46.6944 46.6944 0 0 1 29.7984-13.6192V307.2h16.5888v23.3472a43.1104 43.1104 0 0 1 28.7744 15.872 53.9648 53.9648 0 0 1 10.24 34.2016H327.68a30.72 30.72 0 0 0-5.12-19.3536 16.7936 16.7936 0 0 0-13.7216-6.3488 17.1008 17.1008 0 0 0-13.2096 5.0176 19.456 19.456 0 0 0-4.608 13.824 18.432 18.432 0 0 0 4.5056 13.1072 51.2 51.2 0 0 0 16.9984 10.24 194.56 194.56 0 0 1 20.48 9.728 61.44 61.44 0 0 1 13.5168 10.24 42.1888 42.1888 0 0 1 8.4992 13.0048 46.592 46.592 0 0 1 3.3792 17.3056 40.96 40.96 0 0 1-10.9568 29.696 47.7184 47.7184 0 0 1-30.72 13.5168V512h-16.5888v-21.2992a49.664 49.664 0 0 1-32.9728-15.6672A51.9168 51.9168 0 0 1 256 439.6032h30.0032a29.2864 29.2864 0 0 0 5.8368 19.6608 20.48 20.48 0 0 0 16.896 6.8608 20.48 20.48 0 0 0 13.9264-5.3248 17.7152 17.7152 0 0 0 5.0176-13.2096z" fill="#FFFFFF" p-id="7221"></path><path d="M460.288 307.2m25.6 0l256 0q25.6 0 25.6 25.6l0 0q0 25.6-25.6 25.6l-256 0q-25.6 0-25.6-25.6l0 0q0-25.6 25.6-25.6Z" fill="#FFFFFF" p-id="7222"></path><path d="M613.888 409.6m25.6 0l102.4 0q25.6 0 25.6 25.6l0 0q0 25.6-25.6 25.6l-102.4 0q-25.6 0-25.6-25.6l0 0q0-25.6 25.6-25.6Z" fill="#FFFFFF" p-id="7223"></path><path d="M102.4 409.6v409.6a102.4 102.4 0 0 0 102.4 102.4h563.2z" fill="#2A44A1" p-id="7224"></path><path d="M921.6 409.6v409.6a102.4 102.4 0 0 1-102.4 102.4H256z" fill="#3D60F6" p-id="7225"></path></svg>