<?xml version="1.0" standalone="no"?><!DOCTYPE svg PUBLIC "-//W3C//DTD SVG 1.1//EN" "http://www.w3.org/Graphics/SVG/1.1/DTD/svg11.dtd"><svg t="1710511763543" class="icon" viewBox="0 0 1024 1024" version="1.1" xmlns="http://www.w3.org/2000/svg" p-id="5422" xmlns:xlink="http://www.w3.org/1999/xlink" width="200" height="200"><path d="M144 80m128 0l480 0q128 0 128 128l0 608q0 128-128 128l-480 0q-128 0-128-128l0-608q0-128 128-128Z" fill="#FFFFFF" p-id="5423"></path><path d="M193 129m112 0l447 0q112 0 112 112l0 575q0 112-112 112l-447 0q-112 0-112-112l0-575q0-112 112-112Z" fill="#7FEBD9" p-id="5424"></path><path d="M560 80v224l-112-48-112 48V80h224z" fill="#FFFFFF" p-id="5425"></path><path d="M544 160v128l-96-48-40.84 20.42A16 16 0 0 1 384 246.11V192a64 64 0 0 1 64-64h64a32 32 0 0 1 32 32z" fill="#FFE07A" p-id="5426"></path><path d="M752 64H272c-79.4 0-144 64.6-144 144v608c0 79.4 64.6 144 144 144h480c79.4 0 144-64.6 144-144V208c0-79.4-64.6-144-144-144zM544 96v183.74l-89.7-38.45a16 16 0 0 0-12.6 0L352 279.74V96z m320 720a112.12 112.12 0 0 1-112 112H272a112.12 112.12 0 0 1-112-112V208A112.12 112.12 0 0 1 272 96h48v208a16 16 0 0 0 22.3 14.71l105.7-45.3 105.7 45.3A16 16 0 0 0 576 304V96h176a112.12 112.12 0 0 1 112 112z" fill="#333333" p-id="5427"></path><path d="M320 448m16 0l352 0q16 0 16 16l0 0q0 16-16 16l-352 0q-16 0-16-16l0 0q0-16 16-16Z" fill="#333333" p-id="5428"></path><path d="M320 640m32 0l128 0q32 0 32 32l0 0q0 32-32 32l-128 0q-32 0-32-32l0 0q0-32 32-32Z" fill="#333333" p-id="5429"></path></svg>