<?xml version="1.0" standalone="no"?><!DOCTYPE svg PUBLIC "-//W3C//DTD SVG 1.1//EN" "http://www.w3.org/Graphics/SVG/1.1/DTD/svg11.dtd"><svg t="1710822096575" class="icon" viewBox="0 0 1160 1024" version="1.1" xmlns="http://www.w3.org/2000/svg" p-id="4331" xmlns:xlink="http://www.w3.org/1999/xlink" width="226.5625" height="200"><path d="M1052.97035029 374.93800508L595.69272266 590.84097031c-14.55525615 8.49056572-32.74932656 8.49056572-47.30458272 0L89.89757422 374.93800508C64.42587617 361.59568701 54.72237237 331.2722375 68.06469043 305.80053945c4.85175234-9.70350381 12.12937998-16.98113232 21.83288379-21.83288466L548.38813994 68.06469043c14.55525615-8.49056572 32.74932656-8.49056572 47.30458272 0l458.49056572 215.90296436c25.47169805 13.34231807 35.17520185 43.66576846 21.83288379 69.13746649-6.06469043 9.70350381-13.34231807 16.98113232-23.04582188 21.8328838z m-817.52021542 120.0808626L547.17520185 641.78436641c14.55525615 8.49056572 32.74932656 8.49056572 47.30458272 0l311.72506699-146.76549873v298.3827498c0 92.18328838-150.40431299 167.38544443-335.98382695 167.38544444S235.45013487 886.79784395 235.45013487 793.40161748V495.01886768z" fill="#2F77F1" p-id="4332"></path><path d="M1056.60916455 424.66846396c13.34231807 0 24.25875996 10.9164419 24.25875996 24.25875997v145.55256064c0 13.34231807-10.9164419 24.25875996-24.25875996 24.25875996s-24.25875996-10.9164419-24.25875996-24.25875996v-145.55256064c0-13.34231807 10.9164419-24.25875996 24.25875996-24.25875997z" fill="#AFFCFE" p-id="4333"></path></svg>